<svg width="153" height="165" viewBox="0 0 153 165" fill="none" xmlns="http://www.w3.org/2000/svg">
<path d="M7.10981 35V28.376H15.5098C17.5578 28.376 19.3498 27.976 20.8858 27.176C22.4218 26.344 23.6058 25.144 24.4378 23.576C25.2698 22.008 25.6858 20.152 25.6858 18.008C25.6858 15.864 25.2538 14.024 24.3898 12.488C23.5578 10.952 22.3738 9.768 20.8378 8.936C19.3338 8.104 17.5578 7.688 15.5098 7.688H6.86981V1.112H15.6058C18.1658 1.112 20.5178 1.528 22.6618 2.36C24.8378 3.16 26.7258 4.328 28.3258 5.864C29.9578 7.368 31.2058 9.16 32.0698 11.24C32.9658 13.288 33.4138 15.56 33.4138 18.056C33.4138 20.52 32.9658 22.792 32.0698 24.872C31.2058 26.952 29.9738 28.744 28.3738 30.248C26.7738 31.752 24.8858 32.92 22.7098 33.752C20.5658 34.584 18.2298 35 15.7018 35H7.10981ZM2.02181 35V1.112H9.55781V35H2.02181ZM49.0573 35.528C46.5293 35.528 44.2733 35.016 42.2893 33.992C40.3373 32.936 38.8013 31.48 37.6813 29.624C36.5613 27.768 36.0013 25.672 36.0013 23.336C36.0013 21 36.5453 18.92 37.6333 17.096C38.7533 15.24 40.2573 13.784 42.1453 12.728C44.0333 11.672 46.1613 11.144 48.5293 11.144C50.8333 11.144 52.8653 11.64 54.6253 12.632C56.3853 13.624 57.7613 15 58.7533 16.76C59.7773 18.52 60.2893 20.536 60.2893 22.808C60.2893 23.224 60.2573 23.672 60.1933 24.152C60.1613 24.6 60.0813 25.128 59.9533 25.736L39.8413 25.784V20.744L56.8333 20.696L53.6653 22.808C53.6333 21.464 53.4253 20.36 53.0413 19.496C52.6573 18.6 52.0813 17.928 51.3133 17.48C50.5773 17 49.6653 16.76 48.5773 16.76C47.4253 16.76 46.4173 17.032 45.5533 17.576C44.7213 18.088 44.0653 18.824 43.5853 19.784C43.1373 20.744 42.9133 21.912 42.9133 23.288C42.9133 24.664 43.1533 25.848 43.6333 26.84C44.1453 27.8 44.8493 28.552 45.7453 29.096C46.6733 29.608 47.7613 29.864 49.0093 29.864C50.1613 29.864 51.2013 29.672 52.1293 29.288C53.0573 28.872 53.8733 28.264 54.5773 27.464L58.6093 31.496C57.4573 32.84 56.0653 33.848 54.4333 34.52C52.8013 35.192 51.0093 35.528 49.0573 35.528ZM72.3302 35.576C70.9542 35.576 69.5942 35.4 68.2502 35.048C66.9382 34.696 65.7062 34.2 64.5542 33.56C63.4342 32.888 62.4742 32.12 61.6742 31.256L65.8502 27.032C66.6182 27.864 67.5302 28.52 68.5862 29C69.6422 29.448 70.7942 29.672 72.0422 29.672C72.9062 29.672 73.5622 29.544 74.0102 29.288C74.4902 29.032 74.7302 28.68 74.7302 28.232C74.7302 27.656 74.4422 27.224 73.8662 26.936C73.3222 26.616 72.6182 26.344 71.7542 26.12C70.8902 25.864 69.9782 25.592 69.0182 25.304C68.0582 25.016 67.1462 24.616 66.2822 24.104C65.4182 23.592 64.7142 22.888 64.1702 21.992C63.6262 21.064 63.3542 19.896 63.3542 18.488C63.3542 16.984 63.7382 15.688 64.5062 14.6C65.2742 13.48 66.3622 12.6 67.7702 11.96C69.1782 11.32 70.8262 11 72.7142 11C74.6982 11 76.5222 11.352 78.1862 12.056C79.8822 12.728 81.2582 13.736 82.3142 15.08L78.1382 19.304C77.4022 18.44 76.5702 17.832 75.6422 17.48C74.7462 17.128 73.8662 16.952 73.0022 16.952C72.1702 16.952 71.5462 17.08 71.1302 17.336C70.7142 17.56 70.5062 17.896 70.5062 18.344C70.5062 18.824 70.7782 19.208 71.3222 19.496C71.8662 19.784 72.5702 20.04 73.4342 20.264C74.2982 20.488 75.2102 20.76 76.1702 21.08C77.1302 21.4 78.0422 21.832 78.9062 22.376C79.7702 22.92 80.4742 23.656 81.0182 24.584C81.5622 25.48 81.8342 26.664 81.8342 28.136C81.8342 30.408 80.9702 32.216 79.2422 33.56C77.5462 34.904 75.2422 35.576 72.3302 35.576ZM85.8186 35V11.672H93.1626V35H85.8186ZM89.5146 8.456C88.3626 8.456 87.4026 8.072 86.6346 7.304C85.8986 6.504 85.5306 5.544 85.5306 4.424C85.5306 3.272 85.8986 2.312 86.6346 1.544C87.4026 0.775999 88.3626 0.391999 89.5146 0.391999C90.6666 0.391999 91.6106 0.775999 92.3466 1.544C93.0826 2.312 93.4506 3.272 93.4506 4.424C93.4506 5.544 93.0826 6.504 92.3466 7.304C91.6106 8.072 90.6666 8.456 89.5146 8.456ZM108.222 45.464C105.662 45.464 103.406 45.016 101.454 44.12C99.5342 43.256 98.0142 42.024 96.8942 40.424L101.406 35.912C102.238 36.904 103.166 37.656 104.19 38.168C105.246 38.68 106.51 38.936 107.982 38.936C109.806 38.936 111.23 38.488 112.254 37.592C113.31 36.696 113.838 35.432 113.838 33.8V27.848L115.086 22.76L113.982 17.672V11.672H121.182V33.608C121.182 36.008 120.622 38.088 119.502 39.848C118.382 41.608 116.846 42.984 114.894 43.976C112.942 44.968 110.718 45.464 108.222 45.464ZM107.886 34.28C105.742 34.28 103.838 33.768 102.174 32.744C100.51 31.72 99.1982 30.328 98.2382 28.568C97.2782 26.808 96.7982 24.856 96.7982 22.712C96.7982 20.536 97.2782 18.584 98.2382 16.856C99.1982 15.096 100.51 13.72 102.174 12.728C103.838 11.704 105.742 11.192 107.886 11.192C109.486 11.192 110.91 11.496 112.158 12.104C113.438 12.68 114.462 13.512 115.23 14.6C116.03 15.656 116.478 16.888 116.574 18.296V27.176C116.478 28.552 116.03 29.784 115.23 30.872C114.462 31.928 113.438 32.76 112.158 33.368C110.878 33.976 109.454 34.28 107.886 34.28ZM109.278 27.752C110.302 27.752 111.182 27.528 111.918 27.08C112.686 26.632 113.262 26.04 113.646 25.304C114.062 24.536 114.27 23.672 114.27 22.712C114.27 21.752 114.062 20.888 113.646 20.12C113.262 19.352 112.686 18.744 111.918 18.296C111.182 17.848 110.302 17.624 109.278 17.624C108.286 17.624 107.406 17.848 106.638 18.296C105.87 18.744 105.278 19.352 104.862 20.12C104.446 20.888 104.238 21.752 104.238 22.712C104.238 23.608 104.446 24.456 104.862 25.256C105.278 26.024 105.854 26.632 106.59 27.08C107.358 27.528 108.254 27.752 109.278 27.752ZM141.773 35V21.704C141.773 20.488 141.389 19.512 140.621 18.776C139.885 18.008 138.941 17.624 137.789 17.624C136.989 17.624 136.285 17.8 135.677 18.152C135.069 18.472 134.589 18.952 134.237 19.592C133.885 20.2 133.709 20.904 133.709 21.704L130.877 20.312C130.877 18.488 131.277 16.888 132.077 15.512C132.877 14.136 133.981 13.08 135.389 12.344C136.829 11.576 138.445 11.192 140.237 11.192C141.965 11.192 143.485 11.608 144.797 12.44C146.141 13.24 147.197 14.312 147.965 15.656C148.733 17 149.117 18.472 149.117 20.072V35H141.773ZM126.365 35V11.672H133.709V35H126.365ZM28.9224 95V89.144H36.8904C38.3624 89.144 39.5144 88.712 40.3464 87.848C41.1784 86.984 41.5944 85.928 41.5944 84.68C41.5944 83.816 41.4024 83.048 41.0184 82.376C40.6344 81.704 40.0904 81.176 39.3864 80.792C38.7144 80.408 37.8824 80.216 36.8904 80.216H28.9224V74.504H36.2664C37.5144 74.504 38.5224 74.2 39.2904 73.592C40.0584 72.952 40.4424 71.992 40.4424 70.712C40.4424 69.464 40.0584 68.536 39.2904 67.928C38.5224 67.288 37.5144 66.968 36.2664 66.968H28.9224V61.112H37.7064C39.8824 61.112 41.7224 61.512 43.2264 62.312C44.7624 63.112 45.9304 64.184 46.7304 65.528C47.5304 66.872 47.9304 68.36 47.9304 69.992C47.9304 72.072 47.2584 73.832 45.9144 75.272C44.5704 76.712 42.5864 77.704 39.9624 78.248L40.1544 75.704C43.0024 76.248 45.1944 77.352 46.7304 79.016C48.2984 80.68 49.0824 82.728 49.0824 85.16C49.0824 87.016 48.6184 88.696 47.6904 90.2C46.7944 91.672 45.4824 92.84 43.7544 93.704C42.0584 94.568 40.0104 95 37.6104 95H28.9224ZM23.1624 95V61.112H30.6024V95H23.1624ZM63.6084 95.528C61.4644 95.528 59.5604 95.096 57.8964 94.232C56.2644 93.336 54.9844 92.12 54.0564 90.584C53.1284 89.016 52.6644 87.224 52.6644 85.208V71.672H60.0084V85.112C60.0084 85.912 60.1364 86.6 60.3924 87.176C60.6804 87.752 61.0964 88.2 61.6404 88.52C62.1844 88.84 62.8404 89 63.6084 89C64.6964 89 65.5604 88.664 66.2004 87.992C66.8404 87.288 67.1604 86.328 67.1604 85.112V71.672H74.5044V85.16C74.5044 87.208 74.0404 89.016 73.1124 90.584C72.1844 92.12 70.9044 93.336 69.2724 94.232C67.6404 95.096 65.7524 95.528 63.6084 95.528ZM79.1154 95V71.672H86.4594V95H79.1154ZM82.8114 68.456C81.6594 68.456 80.6994 68.072 79.9314 67.304C79.1954 66.504 78.8274 65.544 78.8274 64.424C78.8274 63.272 79.1954 62.312 79.9314 61.544C80.6994 60.776 81.6594 60.392 82.8114 60.392C83.9634 60.392 84.9074 60.776 85.6434 61.544C86.3794 62.312 86.7474 63.272 86.7474 64.424C86.7474 65.544 86.3794 66.504 85.6434 67.304C84.9074 68.072 83.9634 68.456 82.8114 68.456ZM91.6311 95V60.152H98.9751V95H91.6311ZM114.083 95.48C111.875 95.48 109.907 94.952 108.179 93.896C106.483 92.84 105.139 91.4 104.147 89.576C103.187 87.752 102.707 85.672 102.707 83.336C102.707 81 103.187 78.92 104.147 77.096C105.139 75.272 106.483 73.832 108.179 72.776C109.907 71.72 111.875 71.192 114.083 71.192C115.683 71.192 117.123 71.496 118.403 72.104C119.715 72.712 120.787 73.56 121.619 74.648C122.483 75.704 122.963 76.92 123.059 78.296V88.136C122.963 89.512 122.499 90.76 121.667 91.88C120.835 92.968 119.763 93.848 118.451 94.52C117.139 95.16 115.683 95.48 114.083 95.48ZM115.379 88.856C116.435 88.856 117.347 88.632 118.115 88.184C118.883 87.704 119.491 87.048 119.939 86.216C120.387 85.384 120.611 84.424 120.611 83.336C120.611 82.248 120.387 81.304 119.939 80.504C119.523 79.672 118.915 79.016 118.115 78.536C117.347 78.056 116.451 77.816 115.427 77.816C114.403 77.816 113.491 78.056 112.691 78.536C111.923 79.016 111.299 79.672 110.819 80.504C110.371 81.336 110.147 82.28 110.147 83.336C110.147 84.392 110.371 85.336 110.819 86.168C111.267 87 111.891 87.656 112.691 88.136C113.491 88.616 114.387 88.856 115.379 88.856ZM127.523 95H120.323V88.712L121.427 83.048L120.179 77.384V60.152H127.523V95ZM5.25825 155V148.376H13.6583C15.7063 148.376 17.4983 147.976 19.0343 147.176C20.5703 146.344 21.7543 145.144 22.5863 143.576C23.4183 142.008 23.8343 140.152 23.8343 138.008C23.8343 135.864 23.4023 134.024 22.5383 132.488C21.7063 130.952 20.5223 129.768 18.9863 128.936C17.4823 128.104 15.7063 127.688 13.6583 127.688H5.01825V121.112H13.7543C16.3143 121.112 18.6663 121.528 20.8103 122.36C22.9863 123.16 24.8743 124.328 26.4743 125.864C28.1063 127.368 29.3543 129.16 30.2183 131.24C31.1143 133.288 31.5623 135.56 31.5623 138.056C31.5623 140.52 31.1143 142.792 30.2183 144.872C29.3543 146.952 28.1223 148.744 26.5223 150.248C24.9223 151.752 23.0343 152.92 20.8583 153.752C18.7143 154.584 16.3783 155 13.8503 155H5.25825ZM0.17025 155V121.112H7.70625V155H0.17025ZM47.2057 155.528C44.6778 155.528 42.4218 155.016 40.4378 153.992C38.4858 152.936 36.9498 151.48 35.8298 149.624C34.7098 147.768 34.1498 145.672 34.1498 143.336C34.1498 141 34.6938 138.92 35.7818 137.096C36.9018 135.24 38.4058 133.784 40.2938 132.728C42.1818 131.672 44.3098 131.144 46.6778 131.144C48.9818 131.144 51.0138 131.64 52.7738 132.632C54.5338 133.624 55.9098 135 56.9018 136.76C57.9258 138.52 58.4377 140.536 58.4377 142.808C58.4377 143.224 58.4058 143.672 58.3418 144.152C58.3098 144.6 58.2298 145.128 58.1018 145.736L37.9898 145.784V140.744L54.9818 140.696L51.8138 142.808C51.7818 141.464 51.5738 140.36 51.1898 139.496C50.8058 138.6 50.2298 137.928 49.4618 137.48C48.7258 137 47.8138 136.76 46.7258 136.76C45.5738 136.76 44.5658 137.032 43.7018 137.576C42.8698 138.088 42.2138 138.824 41.7338 139.784C41.2858 140.744 41.0618 141.912 41.0618 143.288C41.0618 144.664 41.3018 145.848 41.7818 146.84C42.2938 147.8 42.9978 148.552 43.8938 149.096C44.8218 149.608 45.9098 149.864 47.1578 149.864C48.3098 149.864 49.3498 149.672 50.2778 149.288C51.2058 148.872 52.0218 148.264 52.7258 147.464L56.7578 151.496C55.6058 152.84 54.2138 153.848 52.5818 154.52C50.9498 155.192 49.1578 155.528 47.2057 155.528ZM75.4226 155.48C73.8546 155.48 72.4146 155.176 71.1026 154.568C69.7906 153.96 68.7186 153.128 67.8866 152.072C67.0546 150.984 66.5746 149.752 66.4466 148.376V138.536C66.5746 137.16 67.0546 135.912 67.8866 134.792C68.7186 133.672 69.7906 132.792 71.1026 132.152C72.4146 131.512 73.8546 131.192 75.4226 131.192C77.6306 131.192 79.5826 131.72 81.2786 132.776C83.0066 133.832 84.3506 135.272 85.3106 137.096C86.3026 138.92 86.7986 141 86.7986 143.336C86.7986 145.672 86.3026 147.752 85.3106 149.576C84.3506 151.4 83.0066 152.84 81.2786 153.896C79.5826 154.952 77.6306 155.48 75.4226 155.48ZM74.0786 148.856C75.1346 148.856 76.0466 148.616 76.8146 148.136C77.6146 147.656 78.2386 147 78.6866 146.168C79.1346 145.336 79.3586 144.392 79.3586 143.336C79.3586 142.248 79.1346 141.288 78.6866 140.456C78.2386 139.624 77.6146 138.984 76.8146 138.536C76.0466 138.056 75.1506 137.816 74.1266 137.816C73.1026 137.816 72.1906 138.056 71.3906 138.536C70.6226 138.984 70.0146 139.624 69.5666 140.456C69.1186 141.288 68.8946 142.248 68.8946 143.336C68.8946 144.392 69.1026 145.336 69.5186 146.168C69.9666 147 70.5906 147.656 71.3906 148.136C72.1906 148.616 73.0866 148.856 74.0786 148.856ZM61.9826 164.84V131.672H69.3266V137.672L68.1266 143.336L69.2306 149V164.84H61.9826ZM90.5295 155V120.152H97.8735V155H90.5295ZM114.277 155.528C111.877 155.528 109.701 155 107.749 153.944C105.829 152.856 104.309 151.384 103.189 149.528C102.069 147.672 101.509 145.592 101.509 143.288C101.509 140.984 102.069 138.92 103.189 137.096C104.309 135.272 105.829 133.832 107.749 132.776C109.669 131.688 111.845 131.144 114.277 131.144C116.709 131.144 118.885 131.672 120.805 132.728C122.725 133.784 124.245 135.24 125.365 137.096C126.485 138.92 127.045 140.984 127.045 143.288C127.045 145.592 126.485 147.672 125.365 149.528C124.245 151.384 122.725 152.856 120.805 153.944C118.885 155 116.709 155.528 114.277 155.528ZM114.277 148.856C115.333 148.856 116.261 148.632 117.061 148.184C117.861 147.704 118.469 147.048 118.885 146.216C119.333 145.352 119.557 144.376 119.557 143.288C119.557 142.2 119.333 141.256 118.885 140.456C118.437 139.624 117.813 138.984 117.013 138.536C116.245 138.056 115.333 137.816 114.277 137.816C113.253 137.816 112.341 138.056 111.541 138.536C110.741 138.984 110.117 139.624 109.669 140.456C109.221 141.288 108.997 142.248 108.997 143.336C108.997 144.392 109.221 145.352 109.669 146.216C110.117 147.048 110.741 147.704 111.541 148.184C112.341 148.632 113.253 148.856 114.277 148.856ZM137.245 155.096L127.645 131.672H135.565L141.661 150.248H138.733L144.973 131.672H152.893L142.909 155.096H137.245ZM131.245 164.84L138.253 149.72L142.909 155.096L138.781 164.84H131.245Z" fill="url(#paint0_linear_102_32)"/>
<defs>
<linearGradient id="paint0_linear_102_32" x1="75" y1="-13" x2="75" y2="167" gradientUnits="userSpaceOnUse">
<stop offset="0.31" stop-color="#0CB263"/>
<stop offset="1" stop-color="#FF00E6"/>
</linearGradient>
</defs>
</svg>
