<svg width="395" height="90" viewBox="0 0 395 90" fill="none" xmlns="http://www.w3.org/2000/svg">
<path d="M0.528 70V2.224H15.6V70H0.528ZM26.253 29.488L33.261 16.336L37.581 15.184C37.133 16.08 36.589 16.848 35.949 17.488C35.309 18.128 34.573 18.448 33.741 18.448C31.885 18.448 30.189 17.68 28.653 16.144C27.117 14.608 26.349 12.656 26.349 10.288C26.349 7.792 27.181 5.68 28.845 3.952C30.573 2.16 32.685 1.264 35.181 1.264C37.549 1.264 39.597 2.16 41.325 3.952C43.117 5.68 44.013 7.792 44.013 10.288C44.013 11.312 43.821 12.528 43.437 13.936C43.053 15.28 42.285 17.008 41.133 19.12L33.357 33.328L26.253 29.488ZM49.1528 70V23.344H63.8408V70H49.1528ZM79.0088 70V42.736C79.0088 40.368 78.2728 38.544 76.8008 37.264C75.3928 35.92 73.6328 35.248 71.5208 35.248C70.0487 35.248 68.7368 35.568 67.5848 36.208C66.4328 36.784 65.5048 37.616 64.8008 38.704C64.1608 39.792 63.8408 41.136 63.8408 42.736L58.1768 40.24C58.1768 36.528 58.9768 33.36 60.5768 30.736C62.1768 28.048 64.3528 26 67.1048 24.592C69.8568 23.12 72.9608 22.384 76.4168 22.384C79.6808 22.384 82.5928 23.12 85.1528 24.592C87.7768 26.064 89.8568 28.112 91.3928 30.736C92.9288 33.36 93.6968 36.496 93.6968 40.144V70H79.0088ZM108.865 70V42.736C108.865 40.368 108.129 38.544 106.657 37.264C105.249 35.92 103.489 35.248 101.377 35.248C99.9048 35.248 98.5928 35.568 97.4408 36.208C96.2888 36.784 95.3608 37.616 94.6567 38.704C94.0168 39.792 93.6968 41.136 93.6968 42.736L85.2488 41.584C85.3768 37.616 86.3048 34.224 88.0328 31.408C89.8248 28.528 92.1608 26.32 95.0408 24.784C97.9848 23.184 101.281 22.384 104.929 22.384C108.513 22.384 111.681 23.152 114.433 24.688C117.249 26.16 119.457 28.304 121.057 31.12C122.721 33.872 123.553 37.2 123.553 41.104V70H108.865ZM385.556 71.056C383.06 71.056 380.98 70.192 379.316 68.464C377.652 66.736 376.82 64.656 376.82 62.224C376.82 59.664 377.652 57.552 379.316 55.888C380.98 54.16 383.06 53.296 385.556 53.296C388.116 53.296 390.196 54.16 391.796 55.888C393.46 57.552 394.292 59.664 394.292 62.224C394.292 64.656 393.46 66.736 391.796 68.464C390.196 70.192 388.116 71.056 385.556 71.056Z" fill="white"/>
<path d="M172.943 71.056C167.375 71.056 162.575 70.16 158.543 68.368C154.575 66.512 150.927 63.728 147.599 60.016L157.391 50.32C159.567 52.816 161.967 54.768 164.591 56.176C167.279 57.52 170.383 58.192 173.903 58.192C177.103 58.192 179.567 57.616 181.295 56.464C183.087 55.312 183.983 53.712 183.983 51.664C183.983 49.808 183.407 48.304 182.255 47.152C181.103 46 179.567 45.008 177.647 44.176C175.791 43.344 173.711 42.544 171.406 41.776C169.167 41.008 166.927 40.144 164.687 39.184C162.447 38.16 160.367 36.912 158.447 35.44C156.591 33.904 155.087 32.016 153.935 29.776C152.783 27.472 152.207 24.592 152.207 21.136C152.207 16.976 153.199 13.392 155.183 10.384C157.231 7.376 160.047 5.104 163.631 3.568C167.215 1.968 171.343 1.168 176.015 1.168C180.751 1.168 185.071 2 188.975 3.664C192.943 5.328 196.207 7.6 198.767 10.48L188.975 20.176C186.927 18.064 184.847 16.496 182.735 15.472C180.687 14.448 178.351 13.936 175.727 13.936C173.103 13.936 171.023 14.448 169.487 15.472C167.951 16.432 167.183 17.84 167.183 19.696C167.183 21.424 167.759 22.832 168.911 23.92C170.063 24.944 171.567 25.84 173.423 26.608C175.343 27.376 177.423 28.144 179.663 28.912C181.967 29.68 184.239 30.576 186.479 31.6C188.719 32.624 190.767 33.936 192.623 35.536C194.543 37.072 196.079 39.056 197.231 41.488C198.383 43.856 198.958 46.8 198.958 50.32C198.958 56.784 196.655 61.872 192.047 65.584C187.439 69.232 181.071 71.056 172.943 71.056ZM238.031 70V43.408C238.031 40.976 237.263 39.024 235.727 37.552C234.255 36.016 232.367 35.248 230.063 35.248C228.463 35.248 227.055 35.6 225.839 36.304C224.623 36.944 223.663 37.904 222.959 39.184C222.255 40.4 221.903 41.808 221.903 43.408L216.239 40.624C216.239 36.976 217.007 33.776 218.543 31.024C220.079 28.272 222.223 26.16 224.975 24.688C227.727 23.152 230.895 22.384 234.479 22.384C238.127 22.384 241.327 23.152 244.079 24.688C246.831 26.16 248.943 28.24 250.415 30.928C251.951 33.552 252.719 36.624 252.719 40.144V70H238.031ZM207.215 70V0.303999H221.903V70H207.215ZM281.641 70.96C277.353 70.96 273.513 69.904 270.121 67.792C266.793 65.68 264.137 62.8 262.153 59.152C260.233 55.504 259.273 51.344 259.273 46.672C259.273 42 260.233 37.84 262.153 34.192C264.137 30.544 266.793 27.664 270.121 25.552C273.513 23.44 277.353 22.384 281.641 22.384C284.777 22.384 287.593 22.992 290.089 24.208C292.649 25.424 294.729 27.12 296.329 29.296C297.929 31.408 298.825 33.84 299.017 36.592V56.752C298.825 59.504 297.929 61.968 296.329 64.144C294.793 66.256 292.745 67.92 290.185 69.136C287.625 70.352 284.777 70.96 281.641 70.96ZM284.617 57.712C287.753 57.712 290.281 56.688 292.201 54.64C294.121 52.528 295.081 49.872 295.081 46.672C295.081 44.496 294.633 42.576 293.737 40.912C292.905 39.248 291.689 37.968 290.089 37.072C288.553 36.112 286.761 35.632 284.713 35.632C282.665 35.632 280.841 36.112 279.241 37.072C277.705 37.968 276.457 39.248 275.497 40.912C274.601 42.576 274.153 44.496 274.153 46.672C274.153 48.784 274.601 50.672 275.497 52.336C276.393 54 277.641 55.312 279.241 56.272C280.841 57.232 282.633 57.712 284.617 57.712ZM294.505 70V57.424L296.713 46.096L294.505 34.768V23.344H308.905V70H294.505ZM338.734 70.96C334.447 70.96 330.607 69.904 327.215 67.792C323.887 65.68 321.231 62.8 319.247 59.152C317.327 55.504 316.367 51.344 316.367 46.672C316.367 42 317.327 37.84 319.247 34.192C321.231 30.544 323.887 27.664 327.215 25.552C330.607 23.44 334.447 22.384 338.734 22.384C341.871 22.384 344.687 22.992 347.183 24.208C349.743 25.424 351.823 27.12 353.423 29.296C355.023 31.408 355.919 33.84 356.111 36.592V56.752C355.919 59.504 355.023 61.968 353.423 64.144C351.887 66.256 349.839 67.92 347.279 69.136C344.719 70.352 341.871 70.96 338.734 70.96ZM341.711 57.712C344.847 57.712 347.375 56.688 349.295 54.64C351.215 52.528 352.175 49.872 352.175 46.672C352.175 44.496 351.727 42.576 350.831 40.912C349.999 39.248 348.783 37.968 347.183 37.072C345.647 36.112 343.855 35.632 341.807 35.632C339.759 35.632 337.935 36.112 336.335 37.072C334.799 37.968 333.551 39.248 332.591 40.912C331.695 42.576 331.247 44.496 331.247 46.672C331.247 48.784 331.695 50.672 332.591 52.336C333.487 54 334.735 55.312 336.335 56.272C337.935 57.232 339.727 57.712 341.711 57.712ZM351.599 89.68V58L353.807 46.672L351.599 35.344V23.344H365.999V89.68H351.599Z" fill="#0CB263"/>
</svg>
