<svg width="186" height="45" viewBox="0 0 186 45" fill="none" xmlns="http://www.w3.org/2000/svg">
<path d="M11.0646 35.576C9.68856 35.576 8.32856 35.4 6.98456 35.048C5.67256 34.696 4.44056 34.2 3.28856 33.56C2.16856 32.888 1.20856 32.12 0.408563 31.256L4.58456 27.032C5.35256 27.864 6.26456 28.52 7.32056 29C8.37656 29.448 9.52856 29.672 10.7766 29.672C11.6406 29.672 12.2966 29.544 12.7446 29.288C13.2246 29.032 13.4646 28.68 13.4646 28.232C13.4646 27.656 13.1766 27.224 12.6006 26.936C12.0566 26.616 11.3526 26.344 10.4886 26.12C9.62456 25.864 8.71256 25.592 7.75256 25.304C6.79256 25.016 5.88056 24.616 5.01656 24.104C4.15256 23.592 3.44856 22.888 2.90456 21.992C2.36056 21.064 2.08856 19.896 2.08856 18.488C2.08856 16.984 2.47256 15.688 3.24056 14.6C4.00856 13.48 5.09656 12.6 6.50456 11.96C7.91256 11.32 9.56056 11 11.4486 11C13.4326 11 15.2566 11.352 16.9206 12.056C18.6166 12.728 19.9926 13.736 21.0486 15.08L16.8726 19.304C16.1366 18.44 15.3046 17.832 14.3766 17.48C13.4806 17.128 12.6006 16.952 11.7366 16.952C10.9046 16.952 10.2806 17.08 9.86456 17.336C9.44856 17.56 9.24056 17.896 9.24056 18.344C9.24056 18.824 9.51256 19.208 10.0566 19.496C10.6006 19.784 11.3046 20.04 12.1686 20.264C13.0326 20.488 13.9446 20.76 14.9046 21.08C15.8646 21.4 16.7766 21.832 17.6406 22.376C18.5046 22.92 19.2086 23.656 19.7526 24.584C20.2966 25.48 20.5686 26.664 20.5686 28.136C20.5686 30.408 19.7046 32.216 17.9766 33.56C16.2806 34.904 13.9766 35.576 11.0646 35.576ZM39.9609 35V21.704C39.9609 20.488 39.5769 19.512 38.8089 18.776C38.0729 18.008 37.1289 17.624 35.9769 17.624C35.1769 17.624 34.4729 17.8 33.8649 18.152C33.2569 18.472 32.7769 18.952 32.4249 19.592C32.0729 20.2 31.8969 20.904 31.8969 21.704L29.0649 20.312C29.0649 18.488 29.4489 16.888 30.2169 15.512C30.9849 14.136 32.0569 13.08 33.4329 12.344C34.8089 11.576 36.3929 11.192 38.1849 11.192C40.0089 11.192 41.6089 11.576 42.9849 12.344C44.3609 13.08 45.4169 14.12 46.1529 15.464C46.9209 16.776 47.3049 18.312 47.3049 20.072V35H39.9609ZM24.5529 35V0.151999H31.8969V35H24.5529ZM61.7657 35.48C59.6217 35.48 57.7017 34.952 56.0057 33.896C54.3417 32.84 53.0137 31.4 52.0217 29.576C51.0617 27.752 50.5817 25.672 50.5817 23.336C50.5817 21 51.0617 18.92 52.0217 17.096C53.0137 15.272 54.3417 13.832 56.0057 12.776C57.7017 11.72 59.6217 11.192 61.7657 11.192C63.3337 11.192 64.7417 11.496 65.9897 12.104C67.2697 12.712 68.3097 13.56 69.1097 14.648C69.9097 15.704 70.3577 16.92 70.4537 18.296V28.376C70.3577 29.752 69.9097 30.984 69.1097 32.072C68.3417 33.128 67.3177 33.96 66.0377 34.568C64.7577 35.176 63.3337 35.48 61.7657 35.48ZM63.2537 28.856C64.8217 28.856 66.0857 28.344 67.0457 27.32C68.0057 26.264 68.4857 24.936 68.4857 23.336C68.4857 22.248 68.2617 21.288 67.8137 20.456C67.3977 19.624 66.7897 18.984 65.9897 18.536C65.2217 18.056 64.3257 17.816 63.3017 17.816C62.2777 17.816 61.3657 18.056 60.5657 18.536C59.7977 18.984 59.1737 19.624 58.6937 20.456C58.2457 21.288 58.0217 22.248 58.0217 23.336C58.0217 24.392 58.2457 25.336 58.6937 26.168C59.1417 27 59.7657 27.656 60.5657 28.136C61.3657 28.616 62.2617 28.856 63.2537 28.856ZM68.1977 35V28.712L69.3017 23.048L68.1977 17.384V11.672H75.3977V35H68.1977ZM90.3126 35.48C88.1686 35.48 86.2486 34.952 84.5526 33.896C82.8886 32.84 81.5606 31.4 80.5686 29.576C79.6086 27.752 79.1286 25.672 79.1286 23.336C79.1286 21 79.6086 18.92 80.5686 17.096C81.5606 15.272 82.8886 13.832 84.5526 12.776C86.2486 11.72 88.1686 11.192 90.3126 11.192C91.8806 11.192 93.2886 11.496 94.5366 12.104C95.8166 12.712 96.8566 13.56 97.6566 14.648C98.4566 15.704 98.9046 16.92 99.0006 18.296V28.376C98.9046 29.752 98.4566 30.984 97.6566 32.072C96.8886 33.128 95.8646 33.96 94.5846 34.568C93.3046 35.176 91.8806 35.48 90.3126 35.48ZM91.8006 28.856C93.3686 28.856 94.6326 28.344 95.5926 27.32C96.5526 26.264 97.0326 24.936 97.0326 23.336C97.0326 22.248 96.8086 21.288 96.3606 20.456C95.9446 19.624 95.3366 18.984 94.5366 18.536C93.7686 18.056 92.8726 17.816 91.8486 17.816C90.8246 17.816 89.9126 18.056 89.1126 18.536C88.3446 18.984 87.7206 19.624 87.2406 20.456C86.7926 21.288 86.5686 22.248 86.5686 23.336C86.5686 24.392 86.7926 25.336 87.2406 26.168C87.6886 27 88.3126 27.656 89.1126 28.136C89.9126 28.616 90.8086 28.856 91.8006 28.856ZM96.7446 44.84V29L97.8486 23.336L96.7446 17.672V11.672H103.945V44.84H96.7446Z" fill="#0CB263"/>
<path d="M113.723 35.528C112.475 35.528 111.435 35.096 110.603 34.232C109.771 33.368 109.355 32.328 109.355 31.112C109.355 29.832 109.771 28.776 110.603 27.944C111.435 27.08 112.475 26.648 113.723 26.648C115.003 26.648 116.043 27.08 116.843 27.944C117.675 28.776 118.091 29.832 118.091 31.112C118.091 32.328 117.675 33.368 116.843 34.232C116.043 35.096 115.003 35.528 113.723 35.528ZM123.506 35V0.151999H130.85V35H123.506ZM147.542 35.528C145.014 35.528 142.758 35.016 140.774 33.992C138.822 32.936 137.286 31.48 136.166 29.624C135.046 27.768 134.486 25.672 134.486 23.336C134.486 21 135.03 18.92 136.118 17.096C137.238 15.24 138.742 13.784 140.63 12.728C142.518 11.672 144.646 11.144 147.014 11.144C149.318 11.144 151.35 11.64 153.11 12.632C154.87 13.624 156.246 15 157.238 16.76C158.262 18.52 158.774 20.536 158.774 22.808C158.774 23.224 158.742 23.672 158.678 24.152C158.646 24.6 158.566 25.128 158.438 25.736L138.326 25.784V20.744L155.318 20.696L152.15 22.808C152.118 21.464 151.91 20.36 151.526 19.496C151.142 18.6 150.566 17.928 149.798 17.48C149.062 17 148.15 16.76 147.062 16.76C145.91 16.76 144.902 17.032 144.038 17.576C143.206 18.088 142.55 18.824 142.07 19.784C141.622 20.744 141.398 21.912 141.398 23.288C141.398 24.664 141.638 25.848 142.118 26.84C142.63 27.8 143.334 28.552 144.23 29.096C145.158 29.608 146.246 29.864 147.494 29.864C148.646 29.864 149.686 29.672 150.614 29.288C151.542 28.872 152.358 28.264 153.062 27.464L157.094 31.496C155.942 32.84 154.55 33.848 152.918 34.52C151.286 35.192 149.494 35.528 147.542 35.528ZM173.839 35.528C171.311 35.528 169.055 35.016 167.071 33.992C165.119 32.936 163.583 31.48 162.463 29.624C161.343 27.768 160.783 25.672 160.783 23.336C160.783 21 161.327 18.92 162.415 17.096C163.535 15.24 165.039 13.784 166.927 12.728C168.815 11.672 170.943 11.144 173.311 11.144C175.615 11.144 177.647 11.64 179.407 12.632C181.167 13.624 182.543 15 183.535 16.76C184.559 18.52 185.071 20.536 185.071 22.808C185.071 23.224 185.039 23.672 184.975 24.152C184.943 24.6 184.863 25.128 184.735 25.736L164.623 25.784V20.744L181.615 20.696L178.447 22.808C178.415 21.464 178.207 20.36 177.823 19.496C177.439 18.6 176.863 17.928 176.095 17.48C175.359 17 174.447 16.76 173.359 16.76C172.207 16.76 171.199 17.032 170.335 17.576C169.503 18.088 168.847 18.824 168.367 19.784C167.919 20.744 167.695 21.912 167.695 23.288C167.695 24.664 167.935 25.848 168.415 26.84C168.927 27.8 169.631 28.552 170.527 29.096C171.455 29.608 172.543 29.864 173.791 29.864C174.943 29.864 175.983 29.672 176.911 29.288C177.839 28.872 178.655 28.264 179.359 27.464L183.391 31.496C182.239 32.84 180.847 33.848 179.215 34.52C177.583 35.192 175.791 35.528 173.839 35.528Z" fill="white"/>
</svg>
